<?xml version="1.0" encoding="utf-8"?>
<!-- Generator: Adobe Illustrator 21.1.0, SVG Export Plug-In . SVG Version: 6.00 Build 0)  -->
<svg version="1.1"
	 id="svg2" inkscape:export-filename="C:\Users\Stephan\Desktop\double-shape.png" inkscape:export-xdpi="90" inkscape:export-ydpi="90" inkscape:version="0.48.4 r9939" sodipodi:docname="double-shape1.svg" xmlns:cc="http://creativecommons.org/ns#" xmlns:dc="http://purl.org/dc/elements/1.1/" xmlns:inkscape="http://www.inkscape.org/namespaces/inkscape" xmlns:rdf="http://www.w3.org/1999/02/22-rdf-syntax-ns#" xmlns:sodipodi="http://sodipodi.sourceforge.net/DTD/sodipodi-0.dtd" xmlns:svg="http://www.w3.org/2000/svg"
	 xmlns="http://www.w3.org/2000/svg" xmlns:xlink="http://www.w3.org/1999/xlink" x="0px" y="0px" viewBox="0 0 85.7 85.4"
	 style="enable-background:new 0 0 85.7 85.4;" xml:space="preserve">
<style type="text/css">
	.st0{fill:url(#path11_1_);}
	.st1{fill:#4CC1A5;fill-opacity:0;}
	.st2{opacity:0.5;fill:#4CC1A5;enable-background:new    ;}
	.st3{fill:#4CC1A5;}
	.st4{fill:#FFFFFF;fill-opacity:0;}
	.st5{opacity:0.6;fill:#F7890F;enable-background:new    ;}
	.st6{fill:#F9E530;}
	.st7{fill:#FCFC08;}
</style>
<sodipodi:namedview  bordercolor="#666666" borderopacity="1.0" id="base" inkscape:current-layer="layer2" inkscape:cx="25.64769" inkscape:cy="57.05568" inkscape:document-units="px" inkscape:pageopacity="0.0" inkscape:pageshadow="2" inkscape:snap-bbox="true" inkscape:snap-global="true" inkscape:window-height="1028" inkscape:window-maximized="1" inkscape:window-width="1680" inkscape:window-x="-8" inkscape:window-y="-8" inkscape:zoom="5.6568542" pagecolor="#ffffff" showgrid="true">
	<inkscape:grid  empspacing="5" enabled="true" id="grid2985" snapvisiblegridlinesonly="true" type="xygrid" visible="true">
		</inkscape:grid>
</sodipodi:namedview>
<g id="layer2" transform="translate(0,-4)" inkscape:groupmode="layer" inkscape:label="Ebene">
	
		<linearGradient id="path11_1_" gradientUnits="userSpaceOnUse" x1="7.823119e-07" y1="5.7" x2="86" y2="91.7" gradientTransform="matrix(1 0 0 -1 0 95.4)">
		<stop  offset="0" style="stop-color:#22382D"/>
		<stop  offset="1" style="stop-color:#0F37DC"/>
	</linearGradient>
	<path id="path11" inkscape:connector-curvature="0" class="st0" d="M84.3,4H43C19.4,4,0.3,23.1,0.3,46.7V88c0,0.8,0.6,1.4,1.4,1.4
		H43c23.6,0,42.7-19.1,42.7-42.7V5.4C85.7,4.6,85.1,4,84.3,4z"/>
</g>
<g id="icon-m-music">
	<rect id="icon-m-music_1_" y="36.5" class="st1" width="48.9" height="48.9"/>
	<g>
		<path class="st2" d="M38.1,44.5h-20c-1.7,0-3.1,1.4-3.1,3c0,1,0,21.8,0,21.8c0,1.7,3,1.7,3,0V53.8h20.2v15.5c0,1.7,3,1.7,3,0
			c0,0,0-20.8,0-21.8C41.1,45.9,39.7,44.5,38.1,44.5z"/>
		<path class="st3" d="M10.2,78.3c-3,0-5.1-2-5.1-4.7c0-3.2,2.8-6.2,6.3-7c0.5-0.1,1-0.2,1.5-0.2c3,0,5.1,2,5.1,4.7
			c0,3.2-2.8,6.2-6.3,7C11.2,78.2,10.7,78.3,10.2,78.3z"/>
		<path class="st3" d="M33.4,78.3c-3,0-5.1-2-5.1-4.7c0-3.2,2.8-6.2,6.3-7c0.5-0.1,1-0.2,1.5-0.2c3,0,5.1,2,5.1,4.7
			c0,3.2-2.8,6.2-6.3,7C34.3,78.2,33.8,78.3,33.4,78.3z"/>
	</g>
</g>
<rect id="icon-m-wizard_1_" x="32.9" y="7" class="st4" width="42.3" height="42.3"/>
<g>
	<rect x="58.8" y="33.9" transform="matrix(0.7071 -0.7071 0.7071 0.7071 -6.5358 53.3903)" class="st5" width="4.8" height="1.3"/>
	<path class="st5" d="M67.2,44.4c-0.9,0-1.7-0.3-2.3-1L53.3,31.9l0.7-4.5l4.5-0.7l11.5,11.5c0.6,0.6,1,1.4,1,2.3
		c0,0.9-0.3,1.7-1,2.3l-0.5,0.5C68.9,44,68.1,44.4,67.2,44.4z M54.7,31.4l11.1,11.1c0.7,0.7,2,0.7,2.8,0l0.5-0.5
		c0.4-0.4,0.6-0.9,0.6-1.4c0-0.5-0.2-1-0.6-1.4l-11-11l-2.9,0.5L54.7,31.4z"/>
</g>
<path class="st6" d="M52.1,36.3c-0.8,0-1.6-0.5-2-1.2l-2.7-5.3l-5.8,0.9c-1,0.2-1.9-0.3-2.3-1.2c-0.4-0.9-0.3-1.9,0.4-2.6l4.2-4.2
	l-2.7-5.3c-0.4-0.9-0.3-1.9,0.4-2.6c0.7-0.7,1.7-0.8,2.6-0.4l5.3,2.7l4.2-4.2c0.7-0.7,1.7-0.8,2.6-0.4c0.9,0.4,1.3,1.4,1.2,2.3
	l-0.9,5.8l5.3,2.7c0.9,0.4,1.3,1.4,1.2,2.3c-0.1,0.5-0.3,0.9-0.6,1.2c-0.3,0.3-0.8,0.6-1.2,0.6l-5.8,0.9l-0.9,5.8
	c-0.2,1-0.9,1.7-1.9,1.9C52.3,36.3,52.2,36.3,52.1,36.3z M48.2,28.3l3.1,6.1c0.2,0.3,0.6,0.5,0.9,0.5c0.4-0.1,0.7-0.4,0.8-0.8
	l1.1-6.8l6.8-1.1c0.2,0,0.4-0.1,0.5-0.3c0.1-0.1,0.2-0.3,0.3-0.5c0.1-0.4-0.1-0.8-0.5-0.9L55,21.5l1.1-6.8c0.1-0.4-0.1-0.8-0.5-0.9
	c-0.3-0.2-0.8-0.1-1,0.2l-4.9,4.9l-6.1-3.1c-0.3-0.2-0.8-0.1-1,0.2c-0.3,0.3-0.3,0.7-0.2,1l3.1,6.1l-4.9,4.9c-0.3,0.3-0.3,0.7-0.2,1
	c0.2,0.3,0.6,0.5,0.9,0.5L48.2,28.3z"/>
<path class="st7" d="M76.8,20.5c-0.2,0-0.4-0.1-0.7-0.3l-3.5-2.5c-0.4-0.3-1.1-0.3-1.5,0l-3.5,2.5c-0.5,0.4-0.9,0.4-1.2,0
	c-0.2-0.2-0.2-0.5,0-0.9l1.3-4.1c0.2-0.5-0.1-1.2-0.5-1.4l-3.5-2.5c-0.5-0.4-0.6-0.7-0.5-0.9c0.1-0.2,0.3-0.5,0.9-0.5h4.3
	c0.5,0,1.1-0.4,1.2-0.9L71.1,5c0.2-0.6,0.5-0.8,0.8-0.8c0.2,0,0.5,0.1,0.8,0.8L73.9,9c0.2,0.5,0.7,0.9,1.2,0.9h4.3
	c0.7,0,0.9,0.3,0.9,0.5c0.1,0.2,0,0.6-0.5,0.9l-3.5,2.5c-0.4,0.3-0.6,1-0.5,1.4l1.3,4.1c0.1,0.4,0.1,0.7,0,0.9
	C77.1,20.4,77,20.5,76.8,20.5z M71.9,16.7c0.5,0,0.9,0.1,1.2,0.4l3.5,2.5c0,0,0,0,0,0c0,0,0,0,0,0l-1.3-4.1
	c-0.3-0.8,0.1-1.8,0.8-2.3l3.5-2.5c0,0,0,0,0,0c0,0,0,0,0,0h-4.3c-0.8,0-1.7-0.6-2-1.4l-1.3-4.1c0,0,0,0,0,0c0,0,0,0,0,0l-1.3,4.1
	c-0.3,0.8-1.1,1.4-2,1.4h-4.3c0,0,0,0,0,0c0,0,0,0,0,0l3.5,2.5c0.7,0.5,1,1.5,0.8,2.3l-1.3,4.1c0,0,0,0,0,0c0,0,0,0,0,0l3.5-2.5
	C71,16.9,71.4,16.7,71.9,16.7z"/>
<path class="st7" d="M33,28.2c-0.2,0-0.4-0.1-0.7-0.3l-3.5-2.5c-0.4-0.3-1.1-0.3-1.5,0l-3.5,2.5c-0.5,0.4-0.9,0.4-1.2,0
	c-0.2-0.2-0.2-0.5,0-0.9L24,23c0.2-0.5-0.1-1.2-0.5-1.4L20,19c-0.5-0.4-0.6-0.7-0.5-0.9c0.1-0.2,0.3-0.5,0.9-0.5h4.3
	c0.5,0,1.1-0.4,1.2-0.9l1.3-4.1c0.2-0.6,0.5-0.8,0.8-0.8s0.5,0.1,0.8,0.8l1.3,4.1c0.2,0.5,0.7,0.9,1.2,0.9h4.3
	c0.7,0,0.9,0.3,0.9,0.5c0.1,0.2,0,0.6-0.5,0.9l-3.5,2.5c-0.4,0.3-0.6,1-0.5,1.4l1.3,4.1c0.1,0.4,0.1,0.7,0,0.9
	C33.3,28.1,33.2,28.2,33,28.2z M28.1,24.4c0.5,0,0.9,0.1,1.2,0.4l3.5,2.5c0,0,0,0,0,0c0,0,0,0,0,0l-1.3-4.1
	c-0.3-0.8,0.1-1.8,0.8-2.3l3.5-2.5c0,0,0,0,0,0c0,0,0,0,0,0h-4.3c-0.8,0-1.7-0.6-2-1.4l-1.3-4.1c0,0,0,0,0,0c0,0,0,0,0,0l-1.3,4.1
	c-0.3,0.8-1.1,1.4-2,1.4h-4.3c0,0,0,0,0,0c0,0,0,0,0,0l3.5,2.5c0.7,0.5,1,1.5,0.8,2.3l-1.3,4.1c0,0,0,0,0,0c0,0,0,0,0,0l3.5-2.5
	C27.2,24.5,27.6,24.4,28.1,24.4z"/>
<path class="st7" d="M63.4,62.9c-0.2,0-0.4-0.1-0.7-0.3l-3.5-2.5c-0.4-0.3-1.1-0.3-1.5,0l-3.5,2.5c-0.5,0.4-0.9,0.4-1.2,0
	c-0.2-0.2-0.2-0.5,0-0.9l1.3-4.1c0.2-0.5-0.1-1.2-0.5-1.4l-3.5-2.5C50,53.4,49.9,53,50,52.8c0.1-0.2,0.3-0.5,0.9-0.5h4.3
	c0.5,0,1.1-0.4,1.2-0.9l1.3-4.1c0.2-0.6,0.5-0.8,0.8-0.8s0.5,0.1,0.8,0.8l1.3,4.1c0.2,0.5,0.7,0.9,1.2,0.9h4.3
	c0.7,0,0.9,0.3,0.9,0.5c0.1,0.2,0,0.6-0.5,0.9l-3.5,2.5c-0.4,0.3-0.6,1-0.5,1.4l1.3,4.1c0.1,0.4,0.1,0.7,0,0.9
	C63.8,62.8,63.6,62.9,63.4,62.9z M58.5,59.1c0.5,0,0.9,0.1,1.2,0.4l3.5,2.5c0,0,0,0,0,0c0,0,0,0,0,0L61.9,58
	c-0.3-0.8,0.1-1.8,0.8-2.3l3.5-2.5c0,0,0,0,0,0c0,0,0,0,0,0h-4.3c-0.8,0-1.7-0.6-2-1.4l-1.3-4.1c0,0,0,0,0,0c0,0,0,0,0,0l-1.3,4.1
	c-0.3,0.8-1.1,1.4-2,1.4H51c0,0,0,0,0,0c0,0,0,0,0,0l3.5,2.5c0.7,0.5,1,1.5,0.8,2.3L53.8,62c0,0,0,0,0,0c0,0,0,0,0,0l3.5-2.5
	C57.6,59.3,58.1,59.1,58.5,59.1z"/>
</svg>
