<?xml version="1.0" encoding="UTF-8"?>
<svg version="1.1" viewBox="0 0 86 86" xmlns="http://www.w3.org/2000/svg" xmlns:cc="http://creativecommons.org/ns#" xmlns:dc="http://purl.org/dc/elements/1.1/" xmlns:rdf="http://www.w3.org/1999/02/22-rdf-syntax-ns#" xmlns:xlink="http://www.w3.org/1999/xlink">
<defs>
<linearGradient id="a" x1="11.987" x2="85.903" y1="73.014" y2=".097339" gradientTransform="matrix(1.0011 0 0 1.0011 -.000341 3.9026)" gradientUnits="userSpaceOnUse">
<stop stop-color="#46ab35" offset="0"/>
<stop stop-color="#00896f" offset="1"/>
</linearGradient>
<linearGradient id="b" x1="32.33" x2="85.699" y1="27.412" y2="27.412" gradientUnits="userSpaceOnUse">
<stop stop-color="#42e676" stop-opacity=".5" offset="0"/>
<stop stop-color="#42e676" stop-opacity=".3" offset="1"/>
</linearGradient>
</defs>
<metadata>
<rdf:RDF>
<cc:Work rdf:about="">
<dc:format>image/svg+xml</dc:format>
<dc:type rdf:resource="http://purl.org/dc/dcmitype/StillImage"/>
<dc:title/>
</cc:Work>
</rdf:RDF>
</metadata>
<g transform="translate(0,-4)">
<path d="m85.7 5.7236c0-0.7859-0.63672-1.4236-1.4236-1.4236h-82.553c-0.78589 0-1.4236 0.63772-1.4236 1.4236v41.277c0 23.583 19.118 42.699 42.699 42.699h41.277c0.78589 0 1.4236-0.69679 1.4236-1.4827z" fill="url(#a)"/>
<path transform="translate(0,4)" d="m33 18.912v1h52.695v-1h-52.695zm0.78516 4v1h51.91v-1h-51.91zm0.21484 4v1h51.695v-1h-51.695zm0 4v1h51.695v-1h-51.695zm-1.6699 4v1h53.369v-1h-53.369z" fill="url(#b)" style="paint-order:stroke markers fill"/>
<path d="m62.027 80.773c-1.7627 0-3.5319-0.26473-5.2658-0.78764-1.0602-0.31977-2.106-0.67231-3.1453-1.0432h-0.0026l-0.20182-0.07339c-18.538-6.693-33.386-21.568-39.721-39.788-0.44821-1.2961-0.79812-2.4035-1.1035-3.4847-0.4967-1.7574-0.73522-3.5398-0.7077-5.2972 0.10878-7.1779 4.7809-13.242 10.203-13.243h9.8474c0.72342 0 1.3105 0.58712 1.3105 1.3105 0 0.72342-0.58712 1.3105-1.3105 1.3105h-9.8855c-3.5385 0.0747-7.4491 4.4323-7.5435 10.663-0.02359 1.5019 0.18217 3.0313 0.6094 4.5437 0.29225 1.0327 0.62644 2.0929 1.0248 3.2423 6.1111 17.577 20.367 31.85 38.168 38.278l0.19396 0.07077c0.99864 0.35516 2.0038 0.69459 3.0234 1.0026 1.4862 0.44821 3.0025 0.67493 4.507 0.67493h0.06029c6.305-0.0249 11.014-3.9959 11.014-7.5291 0-4.0339-0.01966-9.4202-0.01966-9.4202l2.6211-0.01048s0.01966 5.3916 0.01966 9.415c0 5.3955-6.3666 10.138-13.624 10.167-0.02359-0.0013-0.04718-0.0013-0.07077-0.0013z" fill="#42e676" stroke-width="1.3105"/>
<path d="m31.922 17.055c-0.08714 9.8e-4 -0.17505 0.01-0.26367 0.0293-0.70901 0.15202-1.1605 0.84895-1.0098 1.5566 0.01442 0.06815 1.4463 6.7798 2.3965 10.529 1.0838 4.275-0.33896 10.198-5.1133 12.762l-1.1895 0.63867 0.67383 1.1699c0.27915 0.48359 0.56008 0.95475 0.83398 1.4082 0.67493 1.1454 1.386 2.2602 2.1055 3.3008 5.0548 7.4754 10.827 12.72 18.715 17.006l1.1426 0.69336 0.08203-0.15625 0.02344 0.01172 0.89062-1.6504c2.452-3.6669 7.962-5.6363 12.541-4.4883l9.877 2.4883c0.07868 0.02189 0.3795 0.10649 0.38281 0.10742 0.0215 0.0061 0.04292 9.12e-4 0.06445 0.0059 0.59007 0.13553 1.1877-0.13879 1.457-0.66211 0.03988-0.07749 0.07525-0.15871 0.09961-0.24609 0.19715-0.69781-0.21022-1.4234-0.90625-1.6211-1.04e-4 -3e-5 -0.01156-0.0039-0.01172-0.0039l2e-3 -0.0078-0.33398-0.08398-2.3809-0.59967-7.6094-1.918c-5.482-1.38-11.819 0.80439-15.078 5.1855l-0.0078-0.0039-0.03711 0.05664c-6.9643-3.9657-12.161-8.8117-16.748-15.594-0.69197-0.99995-1.3682-2.0599-2.0195-3.166-0.05635-0.09174-0.11162-0.1843-0.16797-0.27734 4.4572-3.123 6.6955-9.3194 5.2539-15.002-0.93704-3.6997-2.3586-10.363-2.373-10.43-0.13302-0.62038-0.68101-1.0459-1.291-1.0391z" fill="#7af5b4" stroke-width="1.3105"/>
<path d="m76.617 8.884c-0.25728 0.02365-0.49644 0.10874-0.69922 0.25195-0.37847 0.2668-0.5957 0.7162-0.5957 1.2344l0.0039 9.9785c-0.68732-0.42753-1.7743-0.45312-2.0098-0.45312-0.30418 0-0.59062 0.07681-0.85742 0.15625-1.8882 0.56444-3.3672 2.4003-3.3672 4.1777 0 0.77703 0.28973 1.472 0.81445 1.957 0.55182 0.50977 1.3227 0.75478 2.168 0.6875 0.26633-0.02057 0.54035-0.07158 0.81836-0.1543 1.8882-0.56397 3.3691-2.3999 3.3691-4.1777l-2e-3 -7.8125 4.9355 1.7676v-0.0059l0.17578 0.0625v-4.3691c0-1.0051-0.7855-2.0743-1.791-2.4336l-1.1796-0.41402-0.97266-0.3418c-0.27685-0.09905-0.55327-0.13499-0.81055-0.11133zm0.12695 0.92774c0.11205-0.0038 0.23816 0.01875 0.37109 0.06641l1.2852 0.45117 0.86719 0.30273c0.62331 0.22241 1.1699 0.94858 1.1699 1.5527v3.0488l-4.1699-1.4922-0.0078 0.02344-2e-3 -3.3945c0-0.15092 0.03427-0.35482 0.19922-0.4707 0.07686-0.0542 0.17506-0.08405 0.28711-0.08789zm-3.4277 11.02c0.69713 0 1.3894 0.16461 1.6113 0.38281 0.18618 0.11731 0.3761 0.31181 0.39258 0.53125l0.0059 0.79688c0 1.3639-1.211 2.8369-2.6992 3.2812-0.214 0.06354-0.42557 0.10372-0.62695 0.11914-0.58219 0.04346-1.1011-0.1106-1.459-0.44141-0.33599-0.31072-0.51371-0.7505-0.51371-1.2715 0-1.3868 1.1853-2.8285 2.6992-3.2812 0.19952-0.05982 0.41088-0.11719 0.58984-0.11719z" fill="#7af5b4" stroke-width=".46725"/>
<path d="m49.36 16.923c-0.25728 0.02365-0.49644 0.10874-0.69922 0.25195-0.37847 0.2668-0.5957 0.71815-0.5957 1.2363l0.0039 9.9766c-0.68732-0.42753-1.7743-0.45117-2.0098-0.45117-0.30418 0-0.59062 0.07681-0.85742 0.15625-1.8882 0.56444-3.3672 2.3984-3.3672 4.1758 0 0.77703 0.28973 1.472 0.81445 1.957 0.55182 0.50977 1.3227 0.75674 2.168 0.68945 0.26633-0.02057 0.54035-0.07354 0.81836-0.15625 1.8882-0.56397 3.3691-2.3979 3.3691-4.1758l-2e-3 -7.8125 12.426 3.8574 2e-3 9.709c-0.68732-0.42753-1.7743-0.45117-2.0098-0.45117-0.30418 0-0.58867 0.07681-0.85547 0.15625-1.8882 0.56444-3.3672 2.4003-3.3672 4.1777 0 0.77703 0.28778 1.4701 0.8125 1.9551 0.55182 0.50977 1.3227 0.75674 2.168 0.68945 0.26633-0.02057 0.5423-0.07159 0.82031-0.1543 1.8882-0.56397 3.3672-2.3999 3.3672-4.1777l-0.0039-11.623 0.0039 2e-3 -0.0039-0.55078-0.01953-3.8184c-0.0054-1.005-0.7855-2.0743-1.791-2.4336l-9.4082-2.7305-0.97266-0.3418c-0.27685-0.09905-0.55327-0.13694-0.81055-0.11328zm0.12695 0.92969c0.11205-0.0038 0.23816 0.01679 0.37109 0.06445l1.2852 0.45117 9.0957 2.623c0.62331 0.22241 1.1699 0.94663 1.1699 1.5508v3.0508l-12.398-3.8125-0.0078 0.02344-2e-3 -3.3926c0-0.15092 0.03427-0.35678 0.19922-0.47266 0.07686-0.0542 0.17506-0.0821 0.28711-0.08594zm-3.4277 11.018c0.69713 0 1.3894 0.16461 1.6113 0.38281 0.18618 0.11731 0.3761 0.31181 0.39258 0.53125l0.0059 0.79883c0 1.3639-1.211 2.8349-2.6992 3.2793-0.214 0.06354-0.42557 0.10568-0.62695 0.12109-0.58219 0.04346-1.1011-0.11255-1.459-0.44336-0.33595-0.31072-0.51367-0.7505-0.51367-1.2715 0-1.3868 1.1853-2.8285 2.6992-3.2812 0.19952-0.05982 0.41088-0.11719 0.58984-0.11719zm13.361 7.9512c0.69713 0 1.3913 0.16461 1.6133 0.38281 0.18618 0.11731 0.3761 0.30986 0.39258 0.5293l0.0059 0.79883c0 1.3639-1.211 2.8369-2.6992 3.2812-0.214 0.06354-0.42557 0.10372-0.62695 0.11914-0.58219 0.04346-1.103-0.11255-1.4609-0.44336-0.33595-0.31072-0.51367-0.74855-0.51367-1.2695 0-1.3868 1.1873-2.8285 2.7012-3.2812 0.19952-0.05982 0.40893-0.11719 0.58789-0.11719z" fill="#7af5b4" stroke-width=".46725"/>
</g>
</svg>